<svg width="24" height="24" viewBox="0 0 24 24" fill="none" xmlns="http://www.w3.org/2000/svg">
<path d="M14.2328 2.56453C13.4623 1.74169 12.7289 0.89154 12.0343 0.0161302C12.0304 0.0111475 12.0252 0.00708074 12.0192 0.00427325C12.0131 0.00146575 12.0064 0 11.9996 0C11.9928 0 11.9861 0.00146575 11.9801 0.00427325C11.9741 0.00708074 11.9689 0.0111475 11.965 0.0161302C11.2704 0.891931 10.537 1.74246 9.7665 2.56568C0.510512 13.1307 11.227 20.2584 11.227 20.2584L11.313 20.3125C11.3952 21.4153 11.5966 23 11.5966 23H12.4026C12.4026 23 12.6041 21.4222 12.685 20.3205L12.7735 20.2584C12.7735 20.2584 23.4888 13.1307 14.2341 2.56568M11.9996 20.1043C11.9996 20.1043 11.5196 19.7363 11.39 19.5523L11.3887 19.5339L11.9701 8.03162C11.9716 8.0254 11.9753 8.01982 11.9808 8.01582C11.9863 8.01181 11.9932 8.00962 12.0003 8.00962C12.0074 8.00962 12.0142 8.01181 12.0197 8.01582C12.0252 8.01982 12.029 8.0254 12.0304 8.03162L12.6105 19.5339V19.5535C12.4809 19.7375 11.9996 20.1043 11.9996 20.1043Z" fill="#DB9FE5"/>
</svg>
