<svg width="24" height="24" viewBox="0 0 24 24" fill="none" xmlns="http://www.w3.org/2000/svg">
<g clip-path="url(#clip0_232_48)">
<path d="M12 23.9562C11.658 23.9562 11.34 23.8672 11.043 23.7132L8.014 21.9752C7.559 21.7332 7.787 21.6452 7.924 21.6012C8.538 21.4032 8.652 21.3592 9.29 21.0062C9.358 20.9622 9.45 20.9842 9.518 21.0282L11.841 22.3712C11.931 22.4152 12.046 22.4152 12.114 22.3712L21.201 17.2872C21.291 17.2432 21.337 17.1552 21.337 17.0452V6.89922C21.337 6.78922 21.292 6.70122 21.201 6.65722L12.114 1.59622C12.023 1.55222 11.909 1.55222 11.841 1.59622L2.754 6.65722C2.663 6.70122 2.617 6.81122 2.617 6.89922V17.0452C2.617 17.1332 2.663 17.2432 2.754 17.2872L5.236 18.6742C6.58 19.3342 7.422 18.5642 7.422 17.7942V7.78022C7.422 7.64822 7.536 7.51622 7.696 7.51622H8.857C8.994 7.51622 9.13 7.62622 9.13 7.78022V17.7932C9.13 19.5322 8.151 20.5442 6.443 20.5442C5.919 20.5442 5.509 20.5442 4.348 19.9942L1.957 18.6742C1.66909 18.5155 1.42866 18.283 1.26046 18.0006C1.09225 17.7181 1.00235 17.396 1 17.0672V6.92122C1 6.26122 1.364 5.64522 1.957 5.31522L11.044 0.230224C11.34 0.0789042 11.6676 0 12 0C12.3324 0 12.66 0.0789042 12.956 0.230224L22.044 5.31422C22.636 5.64422 23 6.26022 23 6.92022V17.0662C23 17.7262 22.636 18.3422 22.044 18.6732L12.957 23.7562C12.655 23.8872 12.3292 23.9546 12 23.9542M14.801 16.9772C10.816 16.9772 9.996 15.2172 9.996 13.7202C9.996 13.5882 10.11 13.4562 10.269 13.4562H11.453C11.59 13.4562 11.703 13.5442 11.703 13.6762C11.886 14.8422 12.41 15.4142 14.824 15.4142C16.737 15.4142 17.557 14.9962 17.557 14.0062C17.557 13.4342 17.329 13.0162 14.346 12.7302C11.863 12.4872 10.315 11.9602 10.315 10.0452C10.315 8.26222 11.863 7.20522 14.46 7.20522C17.375 7.20522 18.81 8.17422 18.992 10.2872C18.9898 10.3587 18.9657 10.4278 18.923 10.4852C18.878 10.5292 18.81 10.5732 18.741 10.5732H17.557C17.4995 10.5718 17.444 10.5518 17.3989 10.516C17.3538 10.4803 17.3215 10.4309 17.307 10.3752C17.033 9.16522 16.327 8.76822 14.46 8.76822C12.364 8.76822 12.114 9.47222 12.114 10.0012C12.114 10.6392 12.41 10.8372 15.234 11.1892C18.035 11.5412 19.356 12.0472 19.356 13.9392C19.333 15.8772 17.694 16.9772 14.801 16.9772Z" fill="#DB9FE5"/>
</g>
<defs>
<clipPath id="clip0_232_48">
<rect width="24" height="24" fill="white"/>
</clipPath>
</defs>
</svg>
