<svg width="29" height="21" viewBox="0 0 29 21" fill="none" xmlns="http://www.w3.org/2000/svg">
<path d="M8.56396 4.85107L8.39607 10.2797C8.56161 10.198 8.73206 10.1278 8.90742 10.069C9.10159 10.0031 9.29824 9.94464 9.49694 9.8939C9.69994 9.84179 9.90558 9.80199 10.1139 9.7745C10.311 9.748 10.5104 9.73372 10.7095 9.73282C10.9811 9.73267 11.2477 9.7631 11.5093 9.82412C11.7651 9.88202 12.0064 9.99158 12.2184 10.1461C12.4288 10.3001 12.5993 10.5037 12.73 10.7569C12.8609 11.0091 12.9264 11.3268 12.9264 11.71C12.9264 12.0091 12.8777 12.2789 12.7794 12.517C12.6812 12.7554 12.5479 12.954 12.3795 13.1129C12.2101 13.2733 12.0098 13.3975 11.7909 13.4781C11.5618 13.563 11.3193 13.6059 11.0749 13.605C10.6264 13.605 10.2376 13.4854 9.9111 13.2463C9.58334 13.0083 9.34937 12.6926 9.2092 12.2993L9.19063 12.3066L7.97195 13.4482C8.21509 13.848 8.54139 14.1909 8.92872 14.4535C9.49905 14.8412 10.2003 15.0351 11.0324 15.0351C11.5287 15.0349 11.9963 14.9555 12.4352 14.7969C12.8749 14.6376 13.2584 14.4084 13.5857 14.1093C13.913 13.8103 14.1726 13.4432 14.3644 13.0082C14.5565 12.5728 14.6521 12.08 14.6521 11.5276C14.652 11.0235 14.5655 10.5771 14.3927 10.1887C14.2195 9.80109 13.9785 9.47363 13.6698 9.20629C13.3615 8.9397 12.9992 8.73647 12.5829 8.5966C12.1668 8.45614 11.7157 8.3859 11.2297 8.3859C11.0516 8.38605 10.8528 8.39549 10.6334 8.41422C10.4129 8.43265 10.2234 8.46543 10.0652 8.51255L10.1633 6.36542H14.2176V4.85107H8.56396ZM20.3756 7.72751V15.2598C20.3756 15.456 20.3664 15.6407 20.3482 15.8138C20.329 15.9864 20.2867 16.1386 20.2213 16.2705C20.1584 16.3973 20.0613 16.5041 19.941 16.5786C19.8187 16.6535 19.6596 16.6909 19.4639 16.6908C19.308 16.6893 19.1527 16.6703 19.001 16.6341L18.8605 18.0653C18.9453 18.0839 19.0567 18.1034 19.1965 18.122C19.3376 18.1404 19.4781 18.1495 19.6179 18.1492C20.1232 18.1492 20.5321 18.0705 20.8455 17.9113C21.1586 17.7522 21.4066 17.5395 21.5897 17.273C21.7721 17.0057 21.8951 16.6935 21.9606 16.3333C22.0281 15.9559 22.0612 15.5732 22.0596 15.1898V7.72751H20.3756ZM4.09297 7.85303C3.78424 7.85303 3.5061 7.88784 3.25854 7.95747C3.02745 8.02204 2.8036 8.11153 2.59199 8.22482C2.39556 8.33289 2.22927 8.45319 2.09378 8.58958C1.97009 8.71074 1.85972 8.8448 1.76459 8.98946H1.72222V8.04968H0.108643V18.1494H1.79291V13.8843H1.82032C2.03556 14.2217 2.34142 14.4881 2.73994 14.6846C3.13718 14.8809 3.57407 14.9791 4.0506 14.9791C4.56505 14.9789 5.0258 14.883 5.43286 14.6914C5.84007 14.5001 6.18611 14.243 6.47097 13.9199C6.75599 13.5977 6.97643 13.2189 7.13027 12.7835C7.28463 12.3488 7.36197 11.8836 7.36227 11.3879C7.36227 10.8923 7.28259 10.4294 7.12324 9.99925C6.96397 9.56924 6.74013 9.19496 6.4499 8.87709C6.15894 8.55841 5.8056 8.30292 5.41179 8.12649C5.00972 7.94433 4.56996 7.85318 4.09297 7.85303ZM26.3661 7.85303C26.0346 7.85249 25.7044 7.89475 25.3837 7.97877C25.0784 8.05723 24.7889 8.18775 24.528 8.36461C24.276 8.53708 24.0671 8.76513 23.9172 9.03115C23.7631 9.3028 23.6861 9.62475 23.6861 9.99925C23.6861 10.3169 23.7422 10.5833 23.8544 10.7983C23.9623 11.0095 24.1155 11.1941 24.303 11.3391C24.4971 11.4875 24.7125 11.6057 24.9419 11.6896C25.1822 11.7787 25.4282 11.8514 25.6783 11.9071C26.1927 12.0289 26.5786 12.1505 26.836 12.2719C27.0928 12.393 27.2212 12.5942 27.2212 12.8755C27.221 13.0247 27.1885 13.151 27.1237 13.2543C27.058 13.3562 26.9697 13.4401 26.8634 13.4994C26.7539 13.5611 26.6358 13.6059 26.5129 13.6322C26.3911 13.6604 26.2664 13.6747 26.1414 13.6748C25.7769 13.6746 25.4447 13.5953 25.1447 13.4367C24.8459 13.2775 24.6029 13.0763 24.4156 12.8331L23.3075 13.8712C23.635 14.2269 24.0466 14.5003 24.5423 14.6914C25.0289 14.8817 25.5475 14.9791 26.0704 14.9791C26.436 14.9791 26.7891 14.9393 27.1298 14.8597C27.4715 14.7809 27.7706 14.6517 28.0282 14.4745C28.2865 14.2956 28.4984 14.0574 28.646 13.7799C28.8001 13.495 28.877 13.1467 28.8769 12.7348C28.8769 12.4075 28.8114 12.1293 28.6804 11.9003C28.5523 11.6744 28.3776 11.4783 28.168 11.3249C27.9534 11.168 27.7173 11.0428 27.467 10.9533C27.2172 10.8618 26.9618 10.7868 26.7023 10.7286C26.2252 10.6162 25.8627 10.5065 25.6148 10.3994C25.3673 10.2914 25.2436 10.1063 25.2439 9.84429C25.2439 9.58329 25.3554 9.39569 25.5802 9.28422C25.8049 9.17185 26.0519 9.11521 26.3235 9.11521C26.6324 9.11521 26.9177 9.18771 27.1795 9.33271C27.4414 9.47793 27.6466 9.64786 27.7971 9.84429L28.8911 8.87686C28.6194 8.53098 28.2521 8.27383 27.7891 8.10542C27.3334 7.93817 26.8516 7.85273 26.3661 7.85303ZM3.71438 9.22758C4.04169 9.22743 4.32693 9.29057 4.57011 9.41699C4.80518 9.53712 5.01117 9.70716 5.17367 9.9152C5.33287 10.1235 5.45391 10.3584 5.53119 10.6089C5.60927 10.8612 5.64921 11.1238 5.64968 11.3879C5.6489 11.6542 5.60898 11.919 5.53119 12.1738C5.4557 12.4275 5.33455 12.6653 5.17367 12.8755C5.0144 13.081 4.81253 13.2491 4.57011 13.38C4.32693 13.511 4.04169 13.5764 3.71438 13.5764C3.40535 13.5766 3.12948 13.5135 2.88675 13.387C2.64762 13.2642 2.43547 13.0947 2.2628 12.8886C2.0899 12.6836 1.9564 12.4484 1.86903 12.1949C1.78169 11.9445 1.73682 11.6813 1.73627 11.4162C1.73727 11.1487 1.78212 10.8832 1.86903 10.6302C2.04128 10.1127 2.40556 9.68091 2.88675 9.42401C3.12948 9.29306 3.40535 9.22758 3.71438 9.22758ZM17.1797 12.3134V13.3587L16.1692 13.0322L15.9725 13.6394L16.9787 14.0022L16.3584 14.8509L16.8654 15.2376L17.5009 14.3971L18.1541 15.2598L18.677 14.881L18.0567 14.0022L19.0549 13.6614L18.8585 13.056L17.856 13.3587V12.3136L17.1797 12.3134Z" fill="#DB9FE5"/>
</svg>
